<?xml version="1.0" encoding="UTF-8"?>
<svg id="Layer_1" data-name="Layer 1" xmlns="http://www.w3.org/2000/svg" viewBox="0 0 64 64">
  <defs>
    <style>
      .cls-1 {
        fill: #040afe;
      }

      .cls-2 {
        fill: #ff0198;
      }

      .cls-3 {
        fill: #ff009a;
      }

      .cls-4 {
        fill: #02e22a;
      }

      .cls-5 {
        fill: #fff;
      }

      .cls-6 {
        opacity: 0;
      }
    </style>
  </defs>
  <g class="cls-6">
    <rect class="cls-5" width="64" height="64"/>
  </g>
  <g>
    <rect class="cls-1" x="25.81" y="29.33" width="6.76" height="6.76"/>
    <rect class="cls-1" x="34.21" y="29.33" width="6.76" height="6.76"/>
    <rect class="cls-1" x="25.81" y="37.72" width="6.76" height="6.76"/>
    <rect class="cls-1" x="34.21" y="37.72" width="6.76" height="6.76"/>
    <g>
      <path class="cls-4" d="M38.37,19.24c-7.99-3.77-16.63-3.16-21.65,2.25-.4.44-.77.89-1.11,1.37,5.17-4.37,13.38-4.38,20.88-.45l1.88-3.17Z"/>
      <path class="cls-4" d="M52.25,32.91l-3.44,1.59c3.99,7.37,3.99,15.5-.73,20.59-.22.24-.44.46-.68.68,1.27-.7,2.42-1.59,3.43-2.68,4.67-5.04,4.94-12.91,1.42-20.18Z"/>
    </g>
    <path class="cls-3" d="M52.84,32.69s6.7,12.14-.99,20.55c-6.56,7.17-19.91,5.54-29.71-3.55s-12.42-22.24-5.8-29.36c8.62-9.25,21.79-2.13,21.79-2.13-9.59-5.01-20.13-4.59-26.1,1.85-7.63,8.23-4.87,23.18,6.15,33.39,11.02,10.21,26.14,11.82,33.76,3.59,5.59-6.04,5.63-15.61.89-24.35Z"/>
    <path class="cls-1" d="M40.16,62.26v1.74h8.67v-4.38c-2.52,1.58-5.49,2.45-8.67,2.64Z"/>
    <path class="cls-1" d="M45.8,23.65c1.09,1.01,2.1,2.08,3.03,3.17v-11.06l-8.67-6.5v10.11c1.95,1.2,3.85,2.62,5.64,4.28Z"/>
    <g>
      <path class="cls-2" d="M35.29,16.91V7.66L26.62,0v14.86c2.83.18,5.77.87,8.67,2.05Z"/>
      <path class="cls-2" d="M26.62,59.28v4.72h8.67v-1.97c-2.86-.42-5.8-1.35-8.67-2.75Z"/>
    </g>
    <g>
      <path class="cls-4" d="M24.44,14.82V0l-8.67,8.49v8.63c2.55-1.45,5.51-2.21,8.67-2.3Z"/>
      <path class="cls-4" d="M18.19,53.46c-.86-.79-1.66-1.62-2.41-2.46v13.01h8.67v-5.9c-2.17-1.27-4.28-2.82-6.25-4.65Z"/>
    </g>
  </g>
</svg>